<svg width="512" height="513" viewBox="0 0 512 513" fill="none" xmlns="http://www.w3.org/2000/svg">
<path d="M127.247 69.502H387.543M127.247 417.492H387.543M239.299 453.683H275.49M387.543 457.389C387.543 477.636 371.13 494.049 350.883 494.049H163.907C143.66 494.049 127.247 477.636 127.247 457.389V54.66C127.247 34.413 143.66 18 163.907 18H350.882C371.129 18 387.542 34.413 387.542 54.66V457.389H387.543Z" stroke="#686767" stroke-width="15" stroke-miterlimit="10" stroke-linecap="round" stroke-linejoin="round"/>
<path d="M231.096 166.27C232.405 166.27 233.531 165.72 234.472 164.62C235.413 163.521 235.884 162.206 235.884 160.676C235.884 159.147 235.413 157.832 234.472 156.732C233.531 155.633 232.405 155.083 231.096 155.083C229.786 155.083 228.682 155.633 227.781 156.732C226.881 157.832 226.431 159.147 226.431 160.676C226.431 162.206 226.881 163.521 227.781 164.62C228.682 165.72 229.786 166.27 231.096 166.27ZM282.904 166.27C284.214 166.27 285.318 165.72 286.219 164.62C287.119 163.521 287.569 162.206 287.569 160.676C287.569 159.147 287.119 157.832 286.219 156.732C285.318 155.633 284.214 155.083 282.904 155.083C281.594 155.083 280.469 155.633 279.528 156.732C278.587 157.832 278.116 159.147 278.116 160.676C278.116 162.206 278.587 163.521 279.528 164.62C280.469 165.72 281.594 166.27 282.904 166.27ZM183.217 192.658C186.654 192.658 189.6 194.092 192.056 196.96C194.511 199.829 195.739 203.271 195.739 207.286V268.955C195.739 273.066 194.532 276.556 192.117 279.424C189.703 282.292 186.736 283.727 183.217 283.727C179.697 283.727 176.71 282.292 174.254 279.424C171.799 276.556 170.571 273.066 170.571 268.955V207.286C170.571 203.271 171.799 199.829 174.254 196.96C176.71 194.092 179.697 192.658 183.217 192.658ZM313.35 195.383V290.897C313.35 295.295 312.041 299.024 309.422 302.084C306.803 305.143 303.652 306.673 299.969 306.673H290.761V339.228C290.761 343.34 289.533 346.829 287.078 349.698C284.623 352.566 281.635 354 278.116 354C274.597 354 271.609 352.566 269.154 349.698C266.699 346.829 265.471 343.34 265.471 339.228V306.673H248.529V339.228C248.529 343.34 247.301 346.829 244.846 349.698C242.391 352.566 239.403 354 235.884 354C232.446 354 229.5 352.566 227.045 349.698C224.589 346.829 223.362 343.34 223.362 339.228L223.239 306.673H214.154C210.389 306.673 207.197 305.143 204.578 302.084C201.959 299.024 200.65 295.295 200.65 290.897V195.383H313.35ZM284.868 137.3C293.626 142.558 300.623 149.896 305.862 159.314C311.1 168.732 313.719 179.034 313.719 190.22H200.158C200.158 179.034 202.778 168.732 208.016 159.314C213.254 149.896 220.292 142.558 229.132 137.3L220.415 118.512C219.842 117.269 220.047 116.313 221.029 115.644C222.093 115.07 222.911 115.357 223.484 116.504L232.324 135.435C240.099 131.42 248.324 129.412 257 129.412C265.676 129.412 273.901 131.42 281.676 135.435L290.516 116.504C291.089 115.357 291.907 115.07 292.971 115.644C293.953 116.313 294.158 117.269 293.585 118.512L284.868 137.3ZM343.429 207.286V268.955C343.429 273.066 342.201 276.556 339.746 279.424C337.29 282.292 334.303 283.727 330.783 283.727C327.346 283.727 324.4 282.292 321.944 279.424C319.489 276.556 318.261 273.066 318.261 268.955V207.286C318.261 203.175 319.489 199.709 321.944 196.889C324.4 194.068 327.346 192.658 330.783 192.658C334.303 192.658 337.29 194.068 339.746 196.889C342.201 199.709 343.429 203.175 343.429 207.286Z" fill="#686767"/>
</svg>
