<?xml version="1.0" encoding="UTF-8"?>
<svg xmlns="http://www.w3.org/2000/svg" xmlns:xlink="http://www.w3.org/1999/xlink" viewBox="0 0 96 96" width="96px" height="96px">
<g id="surface127080289">
<path style=" stroke:none;fill-rule:nonzero;fill:rgb(20%,20%,20%);fill-opacity:1;" d="M 48 8 C 25.945312 8 8 25.945312 8 48 C 8 70.054688 25.945312 88 48 88 C 70.054688 88 88 70.054688 88 48 C 88 25.945312 70.054688 8 48 8 Z M 45.59375 65.59375 L 34.738281 54.738281 C 33.726562 53.726562 34.445312 52 35.871094 52 L 44 52 L 44 32 C 44 29.792969 45.792969 28 48 28 C 50.207031 28 52 29.792969 52 32 L 52 52 L 60.128906 52 C 61.554688 52 62.273438 53.726562 61.265625 54.738281 L 50.410156 65.59375 C 49.074219 66.925781 46.925781 66.925781 45.59375 65.59375 Z M 45.59375 65.59375 "/>
</g>
</svg>
