<?xml version="1.0" encoding="UTF-8"?>
<svg xmlns="http://www.w3.org/2000/svg" xmlns:xlink="http://www.w3.org/1999/xlink" viewBox="0 0 40 40" width="40px" height="40px">
<g id="surface60422937">
<path style=" stroke:none;fill-rule:nonzero;fill:rgb(99.215686%,41.960785%,23.137255%);fill-opacity:1;" d="M 20 38.75 C 9.660156 38.75 1.25 30.339844 1.25 20 C 1.25 9.660156 9.660156 1.25 20 1.25 C 30.339844 1.25 38.75 9.660156 38.75 20 C 38.75 30.339844 30.339844 38.75 20 38.75 Z M 20 38.75 "/>
<path style=" stroke:none;fill-rule:nonzero;fill:rgb(30.588236%,47.843137%,70.980394%);fill-opacity:1;" d="M 20 1.5 C 30.199219 1.5 38.5 9.800781 38.5 20 C 38.5 30.199219 30.199219 38.5 20 38.5 C 9.800781 38.5 1.5 30.199219 1.5 20 C 1.5 9.800781 9.800781 1.5 20 1.5 M 20 1 C 9.507812 1 1 9.507812 1 20 C 1 30.492188 9.507812 39 20 39 C 30.492188 39 39 30.492188 39 20 C 39 9.507812 30.492188 1 20 1 Z M 20 1 "/>
<path style=" stroke:none;fill-rule:nonzero;fill:rgb(100%,100%,100%);fill-opacity:1;" d="M 20 10.5 C 19.171875 10.5 18.5 11.171875 18.5 12 C 18.5 12.828125 19.171875 13.5 20 13.5 C 20.828125 13.5 21.5 12.828125 21.5 12 C 21.5 11.171875 20.828125 10.5 20 10.5 Z M 20 10.5 "/>
<path style=" stroke:none;fill-rule:nonzero;fill:rgb(100%,100%,100%);fill-opacity:1;" d="M 21.5 28 L 21.5 15.5 L 17.5 15.5 L 17.5 16.5 L 18.5 16.5 L 18.5 28 L 17.5 28 L 17.5 29 L 22.5 29 L 22.5 28 Z M 21.5 28 "/>
</g>
</svg>
