<svg xmlns="http://www.w3.org/2000/svg" data-name="Layer 1" viewBox="0 0 64 64" id="Biometric"><path fill="none" stroke="#1a56e2" stroke-linecap="round" stroke-linejoin="round" stroke-width="2" d="M14,55V24.5A17.5,17.5,0,0,1,31.5,7h0A17.5,17.5,0,0,1,49,24.5V55" class="colorStroke37a849 svgStroke"></path><path fill="none" stroke="#1a56e2" stroke-linecap="round" stroke-linejoin="round" stroke-width="2" d="M19.78 42.2A13.42 13.42 0 0118 35.5v-11a13.43 13.43 0 012.74-8.15M44.26 39.92A13.49 13.49 0 0123 46" class="colorStroke37a849 svgStroke"></path><line x1="45" x2="45" y1="23" y2="36" fill="none" stroke="#1a56e2" stroke-linecap="round" stroke-linejoin="round" stroke-width="2" class="colorStroke37a849 svgStroke"></line><path fill="none" stroke="#1a56e2" stroke-linecap="round" stroke-linejoin="round" stroke-width="2" d="M23.86 13.37a13.49 13.49 0 0118.81 3.56M41 29v6.5a9.51 9.51 0 01-5.66 8.69M35.11 15.71A9.52 9.52 0 0141 24.5M22.75 20.81A9.51 9.51 0 0131.5 15" class="colorStroke37a849 svgStroke"></path><line x1="22" x2="22" y1="32" y2="25" fill="none" stroke="#1a56e2" stroke-linecap="round" stroke-linejoin="round" stroke-width="2" class="colorStroke37a849 svgStroke"></line><path fill="none" stroke="#1a56e2" stroke-linecap="round" stroke-linejoin="round" stroke-width="2" d="M31.5 45A9.51 9.51 0 0122 35.5M28 39.71a5.49 5.49 0 01-2-4.21v-11a5.48 5.48 0 011.61-3.89M37 35.5A5.51 5.51 0 0131.5 41" class="colorStroke37a849 svgStroke"></path><line x1="37" x2="37" y1="25" y2="32" fill="none" stroke="#1a56e2" stroke-linecap="round" stroke-linejoin="round" stroke-width="2" class="colorStroke37a849 svgStroke"></line><path fill="none" stroke="#1a56e2" stroke-linecap="round" stroke-linejoin="round" stroke-width="2" d="M31.5 19a5.48 5.48 0 013.89 1.61M33 35.5a1.5 1.5 0 01-3 0V29M30 24.5a1.5 1.5 0 013 0V31" class="colorStroke37a849 svgStroke"></path></svg>