<svg width="512" height="513" viewBox="0 0 512 513" fill="none" xmlns="http://www.w3.org/2000/svg">
<path d="M127.247 69.502H387.543M127.247 417.492H387.543M239.299 453.683H275.49M387.543 457.389C387.543 477.636 371.13 494.049 350.883 494.049H163.907C143.66 494.049 127.247 477.636 127.247 457.389V54.66C127.247 34.413 143.66 18 163.907 18H350.882C371.129 18 387.542 34.413 387.542 54.66V457.389H387.543Z" stroke="#686767" stroke-width="15" stroke-miterlimit="10" stroke-linecap="round" stroke-linejoin="round"/>
<g clip-path="url(#clip0_38_2)">
<path d="M344.828 266.192C340.724 277.192 335.246 286.744 328.403 295.4L328.676 295.032C317.386 310.109 306.144 317.648 294.951 317.648C288.226 317.232 281.974 315.912 276.169 313.824L276.569 313.952C270.727 311.816 263.947 310.48 256.849 310.264H256.749C249.952 310.496 243.582 311.872 237.794 314.184L238.112 314.072C233.053 316.224 227.156 317.632 220.923 317.992L220.786 318C207.488 318 194.317 308.04 181.274 288.12C169.726 271.544 162.637 251.6 161.982 230.232V230.072C161.936 229.216 161.909 228.208 161.909 227.192C161.909 212.056 167.496 198.064 176.96 186.72L176.806 186.912C185.178 176.784 198.6 170.272 213.761 170.272H214.098H214.079C222.47 170.52 230.423 171.768 237.93 173.888L237.312 173.736C242.571 175.344 248.705 176.568 255.057 177.16L255.43 177.192C262.337 176.656 268.707 175.264 274.64 173.128L274.203 173.264C280.919 171.032 288.681 169.616 296.771 169.344H296.908H297.545C307.764 169.344 317.237 172.152 325.017 176.936L324.863 176.848C330.068 180.176 334.563 183.968 338.404 188.24L338.513 188.368C332.871 192.368 327.948 196.84 323.707 201.792L323.552 201.984C318.211 208.568 315.017 216.784 315.017 225.648V225.88V226.368C315.017 235.816 318.411 244.568 324.18 251.736L324.071 251.6C328.894 258.336 336.047 263.448 344.528 266.112L344.81 266.192H344.828ZM295.479 130.848C295.297 136.544 293.914 141.912 291.548 146.832L291.675 146.544C288.736 152.768 284.613 158.072 279.481 162.48L279.472 162.488C275.623 166.104 270.882 168.944 265.549 170.736L265.294 170.808C261.317 171.768 256.658 172.464 251.872 172.752L251.644 172.76C251.644 172.696 251.644 172.616 251.644 172.536C251.644 161.56 255.466 151.36 262.009 142.928L261.873 143.112C269.826 134.2 281.274 127.984 294.378 126.04L294.687 126C294.805 126.344 294.924 126.776 295.006 127.216L295.015 127.28C295.106 127.784 295.224 128.216 295.37 128.64L295.342 128.56C295.342 128.869 295.364 129.253 295.406 129.712C295.449 130.171 295.47 130.549 295.47 130.848H295.479Z" fill="#686767"/>
</g>
<defs>
<clipPath id="clip0_38_2">
<rect width="182" height="192" fill="white" transform="translate(162 126)"/>
</clipPath>
</defs>
</svg>
