<svg width="172" height="202" viewBox="0 0 172 202" fill="none" xmlns="http://www.w3.org/2000/svg">
<path d="M124.33 160.76C98.1002 146.72 80.3802 121.84 75.7302 92.49C71.4902 65.8 79.0302 38.86 95.6902 18.33C95.6902 18.33 95.7002 18.32 95.7102 18.31C95.7302 18.27 95.7902 18.2 95.8802 18.09C96.0002 17.95 96.1202 17.8 96.2302 17.67C96.3302 17.55 96.4302 17.43 96.5502 17.29C96.7902 17 97.0802 16.67 97.4002 16.29C98.3602 15.16 99.3602 14.06 100.39 12.98C100.39 12.97 100.4 12.96 100.4 12.96C104.41 7.78 100.83 0 94.0402 0H93.9802C91.7202 0 89.5902 0.94 88.0702 2.59C88.0602 2.6 88.0502 2.61 88.0302 2.63C87.8502 2.82 87.6702 3.03 87.4802 3.24C83.9502 7.09 80.7102 11.17 77.8002 15.44C77.1902 16.33 76.5602 17.24 75.9502 18.18C75.7002 18.55 75.4602 18.92 75.2302 19.3C73.4702 22.12 71.8302 25.01 70.3502 27.97C60.0302 48.34 56.1002 71.76 59.7802 95.03C62.5302 112.35 69.1102 128.3 79.3502 142.41C89.1002 155.87 102.03 167.14 116.71 175.01C118.33 175.87 120.11 176.13 121.78 175.86C124.19 175.48 126.4 174.01 127.64 171.7C129.74 167.76 128.27 162.87 124.33 160.76Z" fill="#1C63EB"/>
<path d="M164.22 5.98999C163.48 3.28999 161.45 1.28999 158.98 0.459988C157.72 0.019988 156.32 -0.130012 154.9 0.119988C134.46 3.73999 116.56 15.06 104.49 31.96C92.3998 48.91 87.5498 69.55 90.8098 90.11C94.9098 115.93 111.43 137.92 135.08 149.08C135.22 149.16 135.37 149.25 135.52 149.32C137.04 150.08 138.72 150.3 140.31 150.05H140.41C140.43 150.05 140.46 150.04 140.48 150.03C140.73 149.99 140.97 149.93 141.21 149.87C141.32 149.85 141.43 149.81 141.53 149.77C141.72 149.71 141.93 149.64 142.12 149.57C142.29 149.5 142.44 149.43 142.61 149.35C142.68 149.31 142.75 149.28 142.84 149.23C144.39 148.44 145.7 147.16 146.48 145.44C146.49 145.43 146.49 145.42 146.5 145.4C148.44 142.06 150.32 138.63 152.03 135.18C155.93 127.33 159.19 119.24 161.82 110.97C163.63 105.23 158.81 99.58 152.87 100.52C149.86 101 147.38 103.14 146.45 106.04C144.07 113.54 141.11 120.87 137.58 128C137.04 129.08 136.46 130.14 135.91 131.2C120.35 121.67 109.64 105.84 106.74 87.58C101.82 56.54 121.03 26.74 150.41 17.78C152.89 29.23 156.84 51.66 154.57 70.19H121.17C116.71 70.19 113.08 73.8 113.08 78.28C113.08 82.47 116.27 85.91 120.35 86.32C120.61 86.34 120.89 86.36 121.17 86.36H161.37C165.25 86.36 168.48 83.65 169.26 80.01C169.28 79.95 169.3 79.89 169.3 79.83C175.92 49.46 164.7 7.76999 164.22 5.98999Z" fill="#1C63EB"/>
<path d="M106.57 198.71C106.53 198.75 106.49 198.79 106.45 198.83C103.73 201.46 99.5098 201.83 96.3698 199.71C55.8098 172.28 42.6098 140.2 42.0898 138.91C42.0798 138.89 42.0798 138.87 42.0798 138.87C36.1998 126.66 32.0698 113.52 29.8898 99.76C26.9498 81.16 27.7298 62.53 32.0298 44.74C32.0498 44.64 32.0798 44.55 32.0998 44.45C32.4598 42.96 32.8298 41.5 33.2598 40.02C33.2998 39.86 33.3398 39.7 33.3898 39.54C34.7598 34.67 36.3898 29.85 38.2998 25.13C38.2998 25.12 38.2998 25.12 38.3098 25.11C38.4098 24.92 38.4998 24.71 38.5898 24.52C38.6698 24.3 38.7498 24.1 38.8098 23.88C39.2398 22.44 39.1198 20.81 38.2298 19.25C37.3098 17.64 35.6798 16.49 33.8398 16.25C31.4698 15.94 29.3398 16.99 28.1098 18.73C27.9898 18.96 27.7898 19.34 27.6698 19.58C27.4898 20.02 27.3098 20.47 27.1298 20.91C25.1398 25.85 23.4198 30.88 21.9698 35.97C21.7198 36.8 21.4898 37.64 21.2698 38.47C21.0698 39.23 20.8698 39.98 20.6798 40.74C20.6598 40.84 20.6298 40.93 20.6098 41.03C15.7298 60.73 14.8298 81.32 18.0498 101.65C18.6398 105.37 19.3698 109.12 20.2298 112.78C21.2498 117.12 18.5598 121.47 14.2298 122.49C14.0298 122.54 13.8298 122.57 13.6298 122.61C9.4998 123.26 5.4998 120.62 4.5198 116.48C3.5598 112.44 2.7398 108.3 2.0998 104.17C-2.6202 74.43 0.649796 44.19 11.5798 16.35L11.6798 16.06C12.1298 14.72 12.6998 13.43 13.2798 12.14C13.3798 11.92 13.4698 11.69 13.5698 11.47C14.0598 10.58 14.6298 9.73 15.2298 8.91C15.2398 8.9 15.2498 8.89 15.2698 8.87C15.4898 8.58 15.7098 8.29 15.9498 8.01C20.0098 3.12 26.1498 0 32.9998 0C38.7198 0 43.9398 2.17 47.8898 5.75C52.3898 9.82 55.2298 15.71 55.2298 22.25C55.2298 23.38 55.1098 24.48 54.9398 25.57C54.8998 25.79 54.8698 26.01 54.8298 26.23C54.8098 26.36 54.7898 26.51 54.7698 26.64C54.7298 26.83 54.6898 27.04 54.6498 27.24C54.6098 27.38 54.5798 27.53 54.5398 27.67C54.5198 27.78 54.4898 27.87 54.4698 27.97C54.4298 28.09 54.3998 28.21 54.3598 28.34C54.3098 28.56 54.2498 28.77 54.1898 28.99C54.1498 29.09 54.1198 29.18 54.0698 29.28V29.29C53.8098 30.09 53.4898 30.87 53.1198 31.62C52.9898 31.94 52.8598 32.28 52.7198 32.6C44.7498 52.95 42.3098 75.13 45.8098 97.23C48.6098 114.81 54.9598 131.24 64.4098 145.71C64.4098 145.71 64.5198 145.88 64.7198 146.19C64.8798 146.43 65.0898 146.75 65.3698 147.15C65.5498 147.43 65.7498 147.73 65.9898 148.06C72.9598 158.23 81.4898 167.39 91.3898 175.2C93.2298 176.78 95.1698 178.37 97.2098 179.99C99.8398 182.05 102.65 184.14 105.62 186.22C109.82 189.15 110.24 195.16 106.57 198.71Z" fill="#1C63EB"/>
<path d="M36.1701 175.85C33.5401 175.85 31.0801 174.55 29.5701 172.39C22.2801 161.96 16.2101 150.76 11.4201 138.86C9.76009 134.76 11.7401 130.09 15.8501 128.43C19.9501 126.77 24.6301 128.77 26.2901 132.87C30.6301 143.65 36.1401 153.81 42.7401 163.26C46.4401 168.57 42.6401 175.85 36.1701 175.85Z" fill="#1C63EB"/>
</svg>
