<svg id="SvgjsSvg1013" width="288" height="288" xmlns="http://www.w3.org/2000/svg" version="1.1"><defs id="SvgjsDefs1014"></defs><g id="SvgjsG1015"><svg xmlns="http://www.w3.org/2000/svg" viewBox="0 0 48 48" width="288" height="288"><path fill="#786600" d="M24,27a1,1,0,0,0,1-1V19a1,1,0,0,0-2,0v7A1,1,0,0,0,24,27Z" class="color646464 svgShape"></path><circle cx="24" cy="32" r="2" fill="#786600" class="color646464 svgShape"></circle><path fill="#786600" d="M42.76,33.71,28.86,8.85a5.57,5.57,0,0,0-9.72,0L5.24,33.71A5.57,5.57,0,0,0,10.11,42H37.89a5.57,5.57,0,0,0,4.87-8.29ZM41,38.24A3.55,3.55,0,0,1,37.89,40H10.11A3.57,3.57,0,0,1,7,34.69L20.88,9.83a3.57,3.57,0,0,1,6.24,0L41,34.69A3.55,3.55,0,0,1,41,38.24Z" class="color646464 svgShape"></path></svg></g></svg>